<svg width="27" height="31" viewBox="0 0 27 31" fill="none" xmlns="http://www.w3.org/2000/svg">
<path d="M9.32904 7.09104C8.64593 10.199 9.115 13.4493 10.649 16.2373C12.2977 18.959 14.879 20.9892 17.9126 21.9502C18.5957 18.8422 18.1266 15.5919 16.5926 12.8039C14.9439 10.0822 12.3626 8.05203 9.32904 7.09104Z" stroke="black" stroke-width="2.5" stroke-linecap="round" stroke-linejoin="round"/>
<mask id="path-2-inside-1_87_50" fill="white">
<path d="M22.1699 9.12758C23.4885 11.2645 23.9666 13.8151 23.5113 16.2845C23.0561 18.754 21.7 20.9664 19.706 22.4927C17.7121 24.019 15.2223 24.7504 12.7197 24.5451C10.217 24.3398 7.8798 23.2124 6.16124 21.3815C4.44269 19.5507 3.46529 17.1468 3.41859 14.6362C3.3719 12.1256 4.25923 9.68706 5.90852 7.79357C7.5578 5.90008 9.8515 4.68655 12.3448 4.38832C14.8381 4.0901 17.3533 4.72843 19.4026 6.17952L18.2544 7.80108C16.607 6.63457 14.5851 6.12143 12.5808 6.36117C10.5765 6.60091 8.73259 7.57644 7.40676 9.09859C6.08093 10.6207 5.36762 12.581 5.40516 14.5993C5.4427 16.6175 6.22841 18.5499 7.60992 20.0217C8.99144 21.4935 10.8703 22.3998 12.8821 22.5648C14.894 22.7299 16.8954 22.1419 18.4983 20.9149C20.1012 19.688 21.1914 17.9095 21.5573 15.9243C21.9233 13.9392 21.539 11.8888 20.479 10.171L22.1699 9.12758Z"/>
</mask>
<path d="M22.1699 9.12758C23.4885 11.2645 23.9666 13.8151 23.5113 16.2845C23.0561 18.754 21.7 20.9664 19.706 22.4927C17.7121 24.019 15.2223 24.7504 12.7197 24.5451C10.217 24.3398 7.8798 23.2124 6.16124 21.3815C4.44269 19.5507 3.46529 17.1468 3.41859 14.6362C3.3719 12.1256 4.25923 9.68706 5.90852 7.79357C7.5578 5.90008 9.8515 4.68655 12.3448 4.38832C14.8381 4.0901 17.3533 4.72843 19.4026 6.17952L18.2544 7.80108C16.607 6.63457 14.5851 6.12143 12.5808 6.36117C10.5765 6.60091 8.73259 7.57644 7.40676 9.09859C6.08093 10.6207 5.36762 12.581 5.40516 14.5993C5.4427 16.6175 6.22841 18.5499 7.60992 20.0217C8.99144 21.4935 10.8703 22.3998 12.8821 22.5648C14.894 22.7299 16.8954 22.1419 18.4983 20.9149C20.1012 19.688 21.1914 17.9095 21.5573 15.9243C21.9233 13.9392 21.539 11.8888 20.479 10.171L22.1699 9.12758Z" stroke="black" stroke-width="3.6864" stroke-linejoin="round" mask="url(#path-2-inside-1_87_50)"/>
<mask id="path-3-inside-2_87_50" fill="white">
<path d="M21.146 25.4714C19.5567 26.5697 17.75 27.3137 15.8481 27.6529C13.9463 27.9921 11.9938 27.9185 10.1228 27.4373C8.25184 26.956 6.50617 26.0782 5.00404 24.8635C3.50191 23.6487 2.27841 22.1252 1.41641 20.3963C0.554421 18.6675 0.0740728 16.7735 0.00790892 14.8428C-0.058255 12.912 0.29131 10.9896 1.03293 9.20579C1.77454 7.42195 2.89088 5.81833 4.30633 4.50356C5.72177 3.1888 7.40326 2.1936 9.23688 1.58538L9.66132 2.86495C8.01106 3.41234 6.49772 4.30802 5.22382 5.49131C3.94992 6.6746 2.94521 8.11786 2.27776 9.72332C1.6103 11.3288 1.2957 13.0589 1.35524 14.7966C1.41479 16.5343 1.8471 18.2388 2.6229 19.7948C3.39869 21.3508 4.49984 22.7219 5.85176 23.8152C7.20368 24.9085 8.77478 25.6985 10.4586 26.1316C12.1425 26.5648 13.8998 26.631 15.6115 26.3257C17.3231 26.0204 18.9492 25.3509 20.3795 24.3624L21.146 25.4714Z"/>
</mask>
<path d="M21.146 25.4714C19.5567 26.5697 17.75 27.3137 15.8481 27.6529C13.9463 27.9921 11.9938 27.9185 10.1228 27.4373C8.25184 26.956 6.50617 26.0782 5.00404 24.8635C3.50191 23.6487 2.27841 22.1252 1.41641 20.3963C0.554421 18.6675 0.0740728 16.7735 0.00790892 14.8428C-0.058255 12.912 0.29131 10.9896 1.03293 9.20579C1.77454 7.42195 2.89088 5.81833 4.30633 4.50356C5.72177 3.1888 7.40326 2.1936 9.23688 1.58538L9.66132 2.86495C8.01106 3.41234 6.49772 4.30802 5.22382 5.49131C3.94992 6.6746 2.94521 8.11786 2.27776 9.72332C1.6103 11.3288 1.2957 13.0589 1.35524 14.7966C1.41479 16.5343 1.8471 18.2388 2.6229 19.7948C3.39869 21.3508 4.49984 22.7219 5.85176 23.8152C7.20368 24.9085 8.77478 25.6985 10.4586 26.1316C12.1425 26.5648 13.8998 26.631 15.6115 26.3257C17.3231 26.0204 18.9492 25.3509 20.3795 24.3624L21.146 25.4714Z" stroke="black" stroke-width="1.93052" stroke-linejoin="round" mask="url(#path-3-inside-2_87_50)"/>
<path d="M13.4049 30.2649V27.5001" stroke="black" stroke-width="0.96"/>
<path d="M8.79691 30.2649H13.4049H18.0129" stroke="black" stroke-width="0.96"/>
<path d="M21 10L6.18951 18.2469" stroke="black" stroke-width="2.5" stroke-linecap="round" stroke-linejoin="round"/>
</svg>
