<svg width="27" height="30" viewBox="0 0 27 30" fill="none" xmlns="http://www.w3.org/2000/svg">
<path d="M9.32904 6.19123C8.64593 9.2992 9.115 12.5495 10.649 15.3375C12.2977 18.0592 14.879 20.0894 17.9126 21.0504C18.5957 17.9424 18.1266 14.6921 16.5926 11.9041C14.9439 9.18239 12.3626 7.15222 9.32904 6.19123Z" stroke="white" stroke-width="2.5" stroke-linecap="round" stroke-linejoin="round"/>
<mask id="path-2-inside-1_87_57" fill="white">
<path d="M22.1699 8.22776C23.4885 10.3647 23.9666 12.9153 23.5113 15.3847C23.0561 17.8542 21.7 20.0666 19.706 21.5929C17.7121 23.1191 15.2223 23.8506 12.7197 23.6453C10.217 23.44 7.8798 22.3126 6.16124 20.4817C4.44269 18.6509 3.46529 16.247 3.41859 13.7364C3.3719 11.2258 4.25923 8.78725 5.90852 6.89376C7.5578 5.00027 9.8515 3.78674 12.3448 3.48851C14.8381 3.19029 17.3533 3.82862 19.4026 5.27971L18.2544 6.90127C16.607 5.73476 14.5851 5.22162 12.5808 5.46136C10.5765 5.7011 8.73259 6.67663 7.40676 8.19878C6.08093 9.72092 5.36762 11.6812 5.40516 13.6994C5.4427 15.7177 6.22841 17.6501 7.60992 19.1219C8.99144 20.5937 10.8703 21.5 12.8821 21.665C14.894 21.83 16.8954 21.2421 18.4983 20.0151C20.1012 18.7882 21.1914 17.0096 21.5573 15.0245C21.9233 13.0393 21.539 10.989 20.479 9.27116L22.1699 8.22776Z"/>
</mask>
<path d="M22.1699 8.22776C23.4885 10.3647 23.9666 12.9153 23.5113 15.3847C23.0561 17.8542 21.7 20.0666 19.706 21.5929C17.7121 23.1191 15.2223 23.8506 12.7197 23.6453C10.217 23.44 7.8798 22.3126 6.16124 20.4817C4.44269 18.6509 3.46529 16.247 3.41859 13.7364C3.3719 11.2258 4.25923 8.78725 5.90852 6.89376C7.5578 5.00027 9.8515 3.78674 12.3448 3.48851C14.8381 3.19029 17.3533 3.82862 19.4026 5.27971L18.2544 6.90127C16.607 5.73476 14.5851 5.22162 12.5808 5.46136C10.5765 5.7011 8.73259 6.67663 7.40676 8.19878C6.08093 9.72092 5.36762 11.6812 5.40516 13.6994C5.4427 15.7177 6.22841 17.6501 7.60992 19.1219C8.99144 20.5937 10.8703 21.5 12.8821 21.665C14.894 21.83 16.8954 21.2421 18.4983 20.0151C20.1012 18.7882 21.1914 17.0096 21.5573 15.0245C21.9233 13.0393 21.539 10.989 20.479 9.27116L22.1699 8.22776Z" stroke="white" stroke-width="3.6864" stroke-linejoin="round" mask="url(#path-2-inside-1_87_57)"/>
<mask id="path-3-inside-2_87_57" fill="white">
<path d="M21.146 24.5716C19.5567 25.6699 17.75 26.4139 15.8481 26.7531C13.9463 27.0923 11.9938 27.0187 10.1228 26.5375C8.25184 26.0562 6.50617 25.1784 5.00404 23.9637C3.50191 22.7489 2.27841 21.2254 1.41641 19.4965C0.554421 17.7676 0.0740728 15.8737 0.00790892 13.943C-0.058255 12.0122 0.29131 10.0898 1.03293 8.30598C1.77454 6.52214 2.89088 4.91852 4.30633 3.60375C5.72177 2.28898 7.40326 1.29379 9.23688 0.685568L9.66132 1.96514C8.01106 2.51253 6.49772 3.40821 5.22382 4.5915C3.94992 5.77479 2.94521 7.21805 2.27776 8.82351C1.6103 10.429 1.2957 12.1591 1.35524 13.8968C1.41479 15.6344 1.8471 17.339 2.6229 18.895C3.39869 20.451 4.49984 21.8221 5.85176 22.9154C7.20368 24.0087 8.77478 24.7987 10.4586 25.2318C12.1425 25.665 13.8998 25.7312 15.6115 25.4259C17.3231 25.1206 18.9492 24.4511 20.3795 23.4625L21.146 24.5716Z"/>
</mask>
<path d="M21.146 24.5716C19.5567 25.6699 17.75 26.4139 15.8481 26.7531C13.9463 27.0923 11.9938 27.0187 10.1228 26.5375C8.25184 26.0562 6.50617 25.1784 5.00404 23.9637C3.50191 22.7489 2.27841 21.2254 1.41641 19.4965C0.554421 17.7676 0.0740728 15.8737 0.00790892 13.943C-0.058255 12.0122 0.29131 10.0898 1.03293 8.30598C1.77454 6.52214 2.89088 4.91852 4.30633 3.60375C5.72177 2.28898 7.40326 1.29379 9.23688 0.685568L9.66132 1.96514C8.01106 2.51253 6.49772 3.40821 5.22382 4.5915C3.94992 5.77479 2.94521 7.21805 2.27776 8.82351C1.6103 10.429 1.2957 12.1591 1.35524 13.8968C1.41479 15.6344 1.8471 17.339 2.6229 18.895C3.39869 20.451 4.49984 21.8221 5.85176 22.9154C7.20368 24.0087 8.77478 24.7987 10.4586 25.2318C12.1425 25.665 13.8998 25.7312 15.6115 25.4259C17.3231 25.1206 18.9492 24.4511 20.3795 23.4625L21.146 24.5716Z" stroke="white" stroke-width="1.93052" stroke-linejoin="round" mask="url(#path-3-inside-2_87_57)"/>
<path d="M13.4049 29.3651V26.6003" stroke="white" stroke-width="0.96"/>
<path d="M8.79691 29.3651H13.4049H18.0129" stroke="white" stroke-width="0.96"/>
<path d="M21 9.10019L6.18951 17.3471" stroke="white" stroke-width="2.5" stroke-linecap="round" stroke-linejoin="round"/>
</svg>
